Coordinates
version=1
nRows=13
nColumns=40
inDegrees=yes

Units are S.I. units (second, meters, Newtons, ...)
Angles are in degrees.

endheader
time	pelvis_tilt	pelvis_list	pelvis_rotation	pelvis_tx	pelvis_ty	pelvis_tz	hip_flexion_r	hip_adduction_r	hip_rotation_r	knee_angle_r	knee_angle_r_beta	ankle_angle_r	subtalar_angle_r	mtp_angle_r	hip_flexion_l	hip_adduction_l	hip_rotation_l	knee_angle_l	knee_angle_l_beta	ankle_angle_l	subtalar_angle_l	mtp_angle_l	lumbar_extension	lumbar_bending	lumbar_rotation	arm_flex_r	arm_add_r	arm_rot_r	elbow_flex_r	pro_sup_r	wrist_flex_r	wrist_dev_r	arm_flex_l	arm_add_l	arm_rot_l	elbow_flex_l	pro_sup_l	wrist_flex_l	wrist_dev_l
     13.22250000	     -4.47407572	     -4.77634647	     -2.43099050	      0.99435470	      0.92022135	      0.48654694	     23.47711697	      2.47162524	    -14.86528730	     22.19721219	     22.19721219	      5.43772710	      0.64644829	      0.03462400	      6.57909232	    -11.29971380	     -6.76040338	     43.30528757	     43.30528757	     11.23666500	    -16.39512442	     -6.39078215	    -11.20716281	      4.69130506	      3.25648268	     -9.90155936	    -12.41525783	      1.89335364	     28.88611588	     46.07418930	      0.00000000	      0.00000000	      5.41886136	    -12.18550240	     -8.46579238	    101.28359020	     48.46989610	      0.00000000	      0.00000000
     13.23400000	     -4.51734301	     -4.72444643	     -2.06059287	      0.99435515	      0.92189466	      0.48810808	     22.73049249	      2.32235511	    -15.60835010	     21.89920463	     21.89920463	      6.19137176	      1.74904929	      0.87295917	      8.73438560	    -11.52010698	     -5.81854168	     47.22659030	     47.22659030	     11.56705214	    -16.66238014	     -0.91639268	    -11.17341699	      4.73488009	      3.81170739	     -8.99887378	    -12.54631781	      1.96774813	     30.00922316	     46.02248267	      0.00000000	      0.00000000	      5.62732367	    -11.86747569	     -7.11998040	     96.29520465	     48.31762148	      0.00000000	      0.00000000
     13.24550000	     -4.53808449	     -4.79863455	     -1.62476339	      0.99418232	      0.92337038	      0.48953807	     21.91910580	      2.33458737	    -16.33810982	     21.46683623	     21.46683623	      6.52489441	      2.54622304	      0.72543756	     10.79634842	    -11.95419891	     -5.10121780	     50.64136557	     50.64136557	     10.73994603	    -17.26741176	      0.93520318	    -11.21439389	      4.89580554	      3.61764400	     -7.44061144	    -12.68124586	      1.69620653	     30.78418979	     46.01943561	      0.00000000	      0.00000000	      5.08274026	    -11.46351685	     -7.03612237	     92.32264541	     48.24050203	      0.00000000	      0.00000000
     13.25700000	     -4.67609245	     -5.02411496	     -1.12724134	      0.99369572	      0.92448707	      0.49084400	     21.22839600	      2.56365029	    -16.93768848	     20.94295341	     20.94295341	      6.74240368	      2.89457053	      0.68301398	     13.05804320	    -12.57745992	     -4.40926243	     53.81382182	     53.81382182	      9.90314267	    -17.77799294	      1.83426043	    -11.17487513	      5.21078384	      3.33369910	     -5.83849551	    -12.88630747	      1.46476577	     31.50894681	     46.01729968	      0.00000000	      0.00000000	      4.12491731	    -11.31867903	     -6.63400185	     89.56635757	     48.15873263	      0.00000000	      0.00000000
     13.26850000	     -4.71839881	     -5.08460492	     -0.70495029	      0.99302012	      0.92577464	      0.49188300	     20.54364239	      2.59279107	    -17.44976306	     20.59086097	     20.59086097	      6.86589687	      3.35631039	      0.29930992	     15.35715537	    -12.85476234	     -3.67200991	     57.01186187	     57.01186187	     11.36809684	    -17.64660888	      8.21110062	    -11.16928401	      5.41521669	      4.30456076	     -4.95649101	    -13.00405595	     -0.39649940	     32.71257859	     46.08091891	      0.00000000	      0.00000000	      5.04099503	    -10.70515145	     -5.08046585	     83.23572685	     47.96451363	      0.00000000	      0.00000000
     13.28000000	     -4.81306782	     -5.26861673	     -0.22695342	      0.99214428	      0.92680033	      0.49285398	     19.90751931	      2.78530182	    -17.90724623	     20.17979144	     20.17979144	      7.02956424	      3.55984084	      0.23197857	     17.51339237	    -13.37465497	     -3.15808660	     59.38502815	     59.38502815	     10.92177420	    -18.04310106	      8.60653164	    -11.16913976	      5.69161715	      3.84706212	     -2.97863979	    -13.20013918	     -0.79036005	     33.46424334	     46.08781197	      0.00000000	      0.00000000	      4.22166240	    -10.54797686	     -4.97992562	     79.58211169	     47.88874003	      0.00000000	      0.00000000
     13.29150000	     -4.83887628	     -5.44479774	      0.23251833	      0.99115074	      0.92785601	      0.49363689	     19.27621240	      2.96291665	    -18.28301828	     19.88450356	     19.88450356	      7.14050870	      3.65226560	     -0.00924466	     19.61079623	    -13.82755034	     -2.65562901	     61.45500462	     61.45500462	     11.20282759	    -18.18940786	     10.14392465	    -11.17848064	      6.00966427	      4.33793643	     -1.36874997	    -13.49967898	     -1.59163391	     33.68405183	     46.13236305	      0.00000000	      0.00000000	      4.73778848	     -9.62144355	     -4.89667102	     73.55256658	     47.78102268	      0.00000000	      0.00000000
     13.30300000	     -4.88244566	     -5.61924668	      0.67610564	      0.99002595	      0.92878421	      0.49436482	     18.67593181	      3.16488169	    -18.58054070	     19.57818691	     19.57818691	      7.27486008	      3.64355750	     -0.20557325	     21.67362923	    -14.25549126	     -2.21269731	     63.06703242	     63.06703242	     11.48941335	    -18.30173772	     11.13532635	    -11.20158408	      6.29758262	      4.47005403	      0.48265407	    -13.72438564	     -2.58716760	     34.22120515	     46.17495103	      0.00000000	      0.00000000	      4.64881715	     -9.19321767	     -4.54077019	     68.57298100	     47.67159136	      0.00000000	      0.00000000
     13.31450000	     -4.93530967	     -5.83175342	      1.11049389	      0.98878614	      0.92954047	      0.49502167	     18.10837268	      3.41210542	    -18.89536120	     19.29245716	     19.29245716	      7.47973987	      3.62605023	     -0.26214525	     23.68617236	    -14.70512118	     -1.80459546	     64.21131488	     64.21131488	     11.57882594	    -18.36816074	     11.09460024	    -11.25841043	      6.58326620	      4.17101343	      2.56419931	    -13.98998034	     -2.96191028	     35.07756900	     46.17630925	      0.00000000	      0.00000000	      3.46294878	     -9.15345344	     -4.26804109	     65.95604707	     47.59932251	      0.00000000	      0.00000000
     13.32600000	     -4.91844666	     -5.85777260	      1.46024911	      0.98753125	      0.93049514	      0.49548637	     17.43916803	      3.49357149	    -19.03831037	     18.95933580	     18.95933580	      7.63892250	      3.62890799	     -0.48907424	     25.45422148	    -14.88123537	     -1.54122197	     64.83238525	     64.83238525	     11.89972499	    -18.38546959	     11.61604977	    -11.28752981	      6.72681014	      4.60825567	      4.65611614	    -14.23440063	     -3.86690818	     34.99014504	     46.23548670	      0.00000000	      0.00000000	      4.16261748	     -8.34753075	     -4.50532330	     58.91547169	     47.50946180	      0.00000000	      0.00000000
     13.33750000	     -4.92283045	     -5.94047987	      1.80904097	      0.98620105	      0.93116648	      0.49588661	     16.77945084	      3.64768143	    -19.22040341	     18.58869729	     18.58869729	      7.90572796	      3.66243797	     -0.53974951	     27.18559863	    -15.08378856	     -1.27388936	     65.04710448	     65.04710448	     12.05485251	    -18.32963469	     11.48886273	    -11.38245376	      6.87850697	      4.19310385	      6.99837474	    -14.35960665	     -4.29618694	     35.97693743	     46.23414443	      0.00000000	      0.00000000	      2.89757066	     -8.41274603	     -4.35058324	     56.06691144	     47.44264277	      0.00000000	      0.00000000
     13.34900000	     -4.89614161	     -5.88249704	      2.05741189	      0.98485879	      0.93186186	      0.49614508	     16.08485602	      3.66147464	    -19.32530096	     18.23890928	     18.23890928	      8.20095469	      3.76923966	     -0.73405122	     28.67615880	    -15.10040907	     -1.17249636	     64.74901495	     64.74901495	     12.12271620	    -18.28009458	     11.24410365	    -11.42727115	      6.90328563	      4.67833028	      9.22291185	    -14.66708951	     -5.05985237	     35.86024035	     46.28152564	      0.00000000	      0.00000000	      3.28083019	     -7.72374014	     -4.83820602	     49.89952416	     47.39217964	      0.00000000	      0.00000000
     13.36050000	     -4.87037344	     -5.83433619	      2.27595402	      0.98348743	      0.93234840	      0.49636120	     15.34234036	      3.72334445	    -19.38014714	     17.78797004	     17.78797004	      8.56519054	      3.87503073	     -0.79435347	     30.05477663	    -15.08493353	     -1.08050412	     64.06640989	     64.06640989	     12.16545107	    -18.14065256	     11.05115205	    -11.55834103	      6.88899189	      4.43520170	     11.63404368	    -14.77933656	     -5.43325554	     36.85800089	     46.27274052	      0.00000000	      0.00000000	      2.02573555	     -7.73087363	     -4.90775809	     47.12662710	     47.34433666	      0.00000000	      0.00000000
